<svg xmlns="http://www.w3.org/2000/svg" width="1024" height="1024" viewBox="0 0 1024 1024"><defs><linearGradient id="bg" x1="0" y1="0" x2="1" y2="1"><stop offset="0" stop-color="#12A594"/><stop offset="0.55" stop-color="#0C8074"/><stop offset="1" stop-color="#075E55"/></linearGradient></defs><rect x="0" y="0" width="1024" height="1024" rx="228" fill="url(#bg)"/><path d="M 378.2 351.4 A 200 200 0 0 0 378.2 648.6" fill="none" stroke="#EAC57B" stroke-width="20" stroke-linecap="round" opacity="0.85"/>
<path d="M 645.8 351.4 A 200 200 0 0 1 645.8 648.6" fill="none" stroke="#EAC57B" stroke-width="20" stroke-linecap="round" opacity="0.85"/>
<path d="M 344.7 314.2 A 250 250 0 0 0 344.7 685.8" fill="none" stroke="#EAC57B" stroke-width="16" stroke-linecap="round" opacity="0.5"/>
<path d="M 679.3 314.2 A 250 250 0 0 1 679.3 685.8" fill="none" stroke="#EAC57B" stroke-width="16" stroke-linecap="round" opacity="0.5"/>
<path d="M 360 540 A 152 152 0 0 0 664 540" fill="none" stroke="#FFF7E6" stroke-width="26" stroke-linecap="round"/>
<line x1="512" y1="690" x2="512" y2="812" stroke="#FFF7E6" stroke-width="26" stroke-linecap="round"/>
<line x1="440" y1="820" x2="584" y2="820" stroke="#FFF7E6" stroke-width="26" stroke-linecap="round"/>
<rect x="417" y="420" width="190" height="224" rx="95" fill="#FFF7E6"/>
<line x1="454" y1="474" x2="570" y2="474" stroke="#0E6E63" stroke-width="13" stroke-linecap="round" opacity="0.85"/>
<line x1="454" y1="512" x2="570" y2="512" stroke="#0E6E63" stroke-width="13" stroke-linecap="round" opacity="0.85"/>
<line x1="454" y1="550" x2="570" y2="550" stroke="#0E6E63" stroke-width="13" stroke-linecap="round" opacity="0.85"/>
<path d="M 418 432 C 398 414 380 396 396 356 C 412 314 502 296 512 278 C 522 296 612 314 628 356 C 644 396 626 414 606 432 Z" fill="#EAC57B"/>
<path d="M 512 278 C 522 296 612 314 628 356 C 644 396 626 414 606 432 L 512 432 Z" fill="#D8A94E" opacity="0.32"/>
<rect x="505" y="262" width="14" height="24" rx="6" fill="#D8A94E"/>
<path d="M 512 206 A 32 32 0 1 0 542 246 A 25 25 0 1 1 512 206 Z" fill="#EAC57B"/></svg>