<svg xmlns="http://www.w3.org/2000/svg" width="1024" height="1024" viewBox="0 0 1024 1024"><defs><linearGradient id="bg" x1="0" y1="0" x2="1" y2="1"><stop offset="0" stop-color="#BFEEE1"/><stop offset="0.5" stop-color="#8FE0CE"/><stop offset="1" stop-color="#63CBB4"/></linearGradient></defs><rect x="0" y="0" width="1024" height="1024" rx="228" fill="url(#bg)"/><g transform="translate(0,158)"><path d="M 500 96 A 40 40 0 1 0 536 148 A 30 30 0 1 1 500 96 Z" fill="#FFFFFF"/>
<path d="M 540.0 98.0 L 544.7 111.5 L 559.0 111.8 L 547.6 120.5 L 551.8 134.2 L 540.0 126.0 L 528.2 134.2 L 532.4 120.5 L 521.0 111.8 L 535.3 111.5 Z" fill="#FFFFFF"/>
<path d="M 418 366 C 396 312 408 248 460 220 C 482 206 500 202 512 200 C 524 202 542 206 564 220 C 616 248 628 312 606 366" fill="none" stroke="#FFFFFF" stroke-width="16" stroke-linecap="round"/>
<circle cx="512" cy="186" r="9" fill="#FFFFFF"/>
<path d="M 405 372 C 372 406 372 456 405 492" fill="none" stroke="#FFFFFF" stroke-width="16" stroke-linecap="round"/><path d="M 619 372 C 652 406 652 456 619 492" fill="none" stroke="#FFFFFF" stroke-width="16" stroke-linecap="round"/>
<line x1="512" y1="476" x2="512" y2="558" stroke="#FFFFFF" stroke-width="16" stroke-linecap="round"/>
<line x1="452" y1="568" x2="572" y2="568" stroke="#FFFFFF" stroke-width="16" stroke-linecap="round"/>
<path d="M 512 388 Q 468 356 405 360 L 416 452 Q 464 472 512 468 Z" fill="#FFFFFF"/><path d="M 512 388 Q 556 356 619 360 L 608 452 Q 560 472 512 468 Z" fill="#FFFFFF"/>
<line x1="512" y1="392" x2="512" y2="466" stroke="#5FBEAA" stroke-width="7" stroke-linecap="round" opacity="0.6"/>
<line x1="430" y1="408" x2="498" y2="402" stroke="#5FBEAA" stroke-width="7" stroke-linecap="round"/><line x1="594" y1="408" x2="526" y2="402" stroke="#5FBEAA" stroke-width="7" stroke-linecap="round"/>
<line x1="426" y1="428" x2="498" y2="422" stroke="#5FBEAA" stroke-width="7" stroke-linecap="round"/><line x1="598" y1="428" x2="526" y2="422" stroke="#5FBEAA" stroke-width="7" stroke-linecap="round"/>
<line x1="424" y1="448" x2="498" y2="442" stroke="#5FBEAA" stroke-width="7" stroke-linecap="round"/><line x1="600" y1="448" x2="526" y2="442" stroke="#5FBEAA" stroke-width="7" stroke-linecap="round"/></g></svg>