<svg xmlns="http://www.w3.org/2000/svg" width="1024" height="1024" viewBox="0 0 1024 1024"><defs><linearGradient id="bg" x1="0" y1="0" x2="1" y2="1"><stop offset="0" stop-color="#12A594"/><stop offset="0.55" stop-color="#0C8074"/><stop offset="1" stop-color="#075E55"/></linearGradient></defs><rect x="0" y="0" width="1024" height="1024" rx="228" fill="url(#bg)"/><path d="M 352.2 368.1 A 215 215 0 0 0 352.2 655.9" fill="none" stroke="#EAC57B" stroke-width="20" stroke-linecap="round" opacity="0.85"/>
<path d="M 671.8 368.1 A 215 215 0 0 1 671.8 655.9" fill="none" stroke="#EAC57B" stroke-width="20" stroke-linecap="round" opacity="0.85"/>
<path d="M 312.8 332.7 A 268 268 0 0 0 312.8 691.3" fill="none" stroke="#EAC57B" stroke-width="16" stroke-linecap="round" opacity="0.5"/>
<path d="M 711.2 332.7 A 268 268 0 0 1 711.2 691.3" fill="none" stroke="#EAC57B" stroke-width="16" stroke-linecap="round" opacity="0.5"/>
<rect x="447" y="240" width="130" height="76" rx="26" fill="#EAC57B"/>
<rect x="447" y="310" width="130" height="32" fill="#D8A94E"/>
<rect x="447" y="342" width="130" height="290" fill="#FFF7E6"/>
<line x1="490" y1="358" x2="490" y2="618" stroke="#0E6E63" stroke-width="8" stroke-linecap="round" opacity="0.35"/>
<line x1="534" y1="358" x2="534" y2="618" stroke="#0E6E63" stroke-width="8" stroke-linecap="round" opacity="0.35"/>
<path d="M 447 632 L 577 632 L 512 784 Z" fill="#FFF7E6"/>
<path d="M 512 632 L 577 632 L 512 784 Z" fill="#EAC57B" opacity="0.55"/>
<path d="M 483 700 L 541 700 L 512 784 Z" fill="#D8A94E"/></svg>